# xmcd
#
# Track frame offsets:
#	150
#	16172
#	34769
#	50606
#	67333
#	84546
#	93145
#	106205
#	113604
#	122809
#	139864
#	155744
#	167985
#	182650
#	205124
#	215074
#	227746
#	238659
#	261072
#	269817
#	296524
#	312402
#
# Disc length: 4243 seconds
#
# Revision: 0
# Processed by: cddbd v1.5.2PL0 Copyright (c) Steve Scherf et al.
# Submitted via: EasyCDDAExtractor 16.0.1.1
#
DISCID=48109116
DTITLE=Norman Blake - Slow Train Through Georgia
DYEAR=1900
DGENRE=Country
TTITLE0=Fiddles Dram/Whiskey Before Breakfast
TTITLE1=Slow Train Through Georgia
TTITLE2=Old Grey Mare
TTITLE3=Down Home Summertime Blues
TTITLE4=Spannish Fandango
TTITLE5=Randall Collins
TTITLE6=Church St. Blues
TTITLE7=Done Gone
TTITLE8=Bully Of Town
TTITLE9=Nashville Blues
TTITLE10=Ginseng Sullivan
TTITLE11=Macon Rag
TTITLE12=Nobody's Business
TTITLE13=Streamlined Cannonball
TTITLE14=Cattle In The Cane
TTITLE15=Little Joe
TTITLE16=Weave And Way
TTITLE17=Six White  Horses
TTITLE18=Richland Ave.
TTITLE19=The Banks Of Good Hope
TTITLE20=Columbus Stockade Blues
TTITLE21=Down At Mylow's House
EXTD=
EXTT0=
EXTT1=
EXTT2=
EXTT3=
EXTT4=
EXTT5=
EXTT6=
EXTT7=
EXTT8=
EXTT9=
EXTT10=
EXTT11=
EXTT12=
EXTT13=
EXTT14=
EXTT15=
EXTT16=
EXTT17=
EXTT18=
EXTT19=
EXTT20=
EXTT21=
PLAYORDER=
